{"accessors":[{"bufferView":0,"byteOffset":0,"componentType":5126,"count":10302,"max":[99.987907409668,100,99.987907409668],"min":[-99.987907409668,-100,-99.987907409668],"normalized":false,"type":"VEC3"},{"bufferView":1,"byteOffset":0,"componentType":5126,"count":10302,"max":[1,0,1,1],"min":[-1,-0.00002156890332,-1,1],"normalized":false,"type":"VEC4"},{"bufferView":2,"byteOffset":0,"componentType":5126,"count":10302,"max":[0.999879240989685,1,0.999879240989685],"min":[-0.99987947940826,-1,-0.99987900257111],"normalized":false,"type":"VEC3"},{"bufferView":3,"byteOffset":0,"componentType":5126,"count":10302,"max":[1,1],"min":[0,0],"normalized":false,"type":"VEC2"},{"bufferView":4,"byteOffset":0,"componentType":5123,"count":60600,"max":[10301],"min":[0],"normalized":false,"type":"SCALAR"}],"asset":{"generator":"Godot Engine v4.3.stable.official@77dcf97d82cbfe4e4615475fa52ca03da645dbd8","version":"2.0"},"bufferViews":[{"buffer":0,"byteLength":123624,"byteOffset":0,"byteStride":12,"target":34962},{"buffer":0,"byteLength":164832,"byteOffset":123624,"byteStride":16,"target":34962},{"buffer":0,"byteLength":123624,"byteOffset":288456,"byteStride":12,"target":34962},{"buffer":0,"byteLength":82416,"byteOffset":412080,"byteStride":8,"target":34962},{"buffer":0,"byteLength":121200,"byteOffset":494496,"target":34963}],"buffers":[{"byteLength":615696,"uri":"test_gltf0.bin"}],"extensionsUsed":["GODOT_single_root","OMI_physics_body"],"materials":[{}],"meshes":[{"extras":{"targetNames":[]},"primitives":[{"attributes":{"NORMAL":2,"POSITION":0,"TANGENT":1,"TEXCOORD_0":3},"indices":4,"material":0,"mode":4}]}],"nodes":[{"children":[1],"mesh":0,"name":"ShaderCollider"},{"extensions":{"OMI_physics_body":{"motion":{"type":"static"}}},"name":"StaticBody3D"}],"scene":0,"scenes":[{"nodes":[0]}]}